<?xml version="1.0" standalone="no"?>
<!DOCTYPE svg PUBLIC "-//W3C//DTD SVG 20010904//EN"
 "http://www.w3.org/TR/2001/REC-SVG-20010904/DTD/svg10.dtd">
<svg version="1.0" xmlns="http://www.w3.org/2000/svg"
 width="512.000000pt" height="512.000000pt" viewBox="0 0 512.000000 512.000000"
 preserveAspectRatio="xMidYMid meet">
<metadata>
Created by potrace 1.16, written by Peter Selinger 2001-2019
</metadata>
<g transform="translate(0.000000,512.000000) scale(0.100000,-0.100000)"
fill="#000000" stroke="none">
<path d="M1810 4862 c-45 -22 -75 -80 -66 -126 4 -18 29 -61 57 -96 76 -95
102 -153 119 -263 21 -139 -29 -276 -152 -419 -138 -161 -192 -301 -192 -498
0 -177 44 -308 150 -449 57 -76 94 -101 151 -101 73 0 134 76 117 146 -3 16
-25 54 -48 84 -96 125 -120 191 -119 325 1 142 30 208 162 365 128 153 182
300 182 490 0 73 -6 129 -20 183 -49 188 -193 377 -288 377 -10 0 -34 -8 -53
-18z"/>
<path d="M2500 4862 c-45 -22 -75 -79 -66 -127 4 -21 28 -60 57 -95 95 -115
139 -253 120 -382 -18 -119 -44 -170 -160 -308 -130 -156 -184 -301 -184 -495
0 -170 47 -310 148 -441 58 -76 98 -104 148 -104 76 0 123 49 121 126 -1 36
-9 55 -46 101 -93 121 -122 198 -122 323 0 139 29 206 155 358 140 168 191
301 191 497 1 153 -32 271 -109 393 -66 105 -144 172 -200 172 -10 0 -34 -8
-53 -18z"/>
<path d="M3195 4866 c-37 -16 -53 -35 -65 -76 -14 -48 -2 -82 47 -141 89 -107
143 -266 127 -378 -17 -124 -51 -194 -156 -315 -38 -44 -82 -103 -99 -132
-123 -216 -123 -513 0 -727 37 -65 105 -146 140 -169 58 -39 147 -13 177 50
24 51 12 95 -42 165 -164 212 -157 456 20 655 30 35 69 82 84 105 189 274 165
651 -55 900 -63 71 -116 90 -178 63z"/>
<path d="M874 2644 l-34 -35 0 -497 c0 -512 5 -589 44 -740 47 -177 139 -369
250 -518 80 -109 216 -245 315 -317 l63 -47 -695 0 c-382 0 -709 -3 -726 -6
-18 -4 -45 -20 -62 -36 -25 -25 -29 -37 -29 -82 0 -58 25 -97 75 -116 36 -14
4934 -14 4970 0 50 19 75 58 75 116 0 45 -4 57 -29 82 -17 16 -44 32 -62 36
-17 3 -344 6 -726 6 l-694 0 79 59 c152 115 369 372 421 499 l13 32 240 0
c187 0 254 4 302 16 199 51 361 212 422 419 27 93 23 239 -10 340 -60 186
-202 326 -391 385 -56 18 -104 23 -237 27 l-168 6 0 168 0 168 -34 35 -33 36
-1653 0 -1653 0 -33 -36z m3776 -661 c82 -38 135 -91 173 -172 63 -134 32
-289 -80 -391 -85 -78 -135 -92 -344 -98 l-176 -4 24 103 c22 91 26 135 30
353 l5 248 152 -4 c144 -4 154 -5 216 -35z"/>
</g>
</svg>
